<svg width="17" height="14" viewBox="0 0 17 14" fill="none" xmlns="http://www.w3.org/2000/svg">
    <path d="M14.004 2h-5.5L7.067.594A1.988 1.988 0 0 0 5.66 0H2.004c-1.125 0-2 .906-2 2v10c0 1.125.875 2 2 2h12c1.094 0 2-.875 2-2V4c0-1.094-.906-2-2-2zm1 10c0 .563-.469 1-1 1h-12c-.562 0-1-.438-1-1V2c0-.531.438-1 1-1H5.66c.282 0 .532.125.72.313L8.066 3h5.937c.531 0 1 .469 1 1v8zM8.348 5.156a.53.53 0 0 0-.719 0l-2.5 2.5a.53.53 0 0 0 0 .719.53.53 0 0 0 .719 0l1.656-1.656V10.5c0 .281.219.5.5.5.25 0 .5-.219.5-.5V6.719l1.625 1.656c.094.094.219.125.375.125a.47.47 0 0 0 .344-.125.53.53 0 0 0 0-.719l-2.5-2.5z" fill="#003D5B"/>
</svg>
