<svg width="17" height="14" viewBox="0 0 17 14" fill="none" xmlns="http://www.w3.org/2000/svg">
    <path d="M11.129 3.938c-.344-.532-1.219-.532-1.594 0L7.254 7.405l-.5-.718c-.375-.5-1.219-.5-1.562 0L3.16 9.5a1.029 1.029 0 0 0-.062 1c.156.313.5.5.844.5h10.093c.344 0 .688-.188.844-.5.156-.313.156-.688-.063-.969L11.13 3.937zM3.973 10l1.969-2.719.937 1.282c.094.156.25.25.406.218a.534.534 0 0 0 .407-.219L10.316 4.5l3.657 5.5h-10zm11-10h-12c-1.094 0-2 .906-2 2v10c0 1.125.906 2 2 2h12c1.094 0 2-.875 2-2V2c0-1.094-.875-2-2-2zm1.031 12c0 .563-.469 1-1 1h-12c-.562 0-1-.438-1-1V2c0-.531.438-1 1-1h12c.531 0 1 .469 1 1v10zm-10.5-7a1.5 1.5 0 0 0 1.5-1.5c0-.813-.687-1.5-1.5-1.5a1.5 1.5 0 0 0-1.5 1.5c0 .844.656 1.5 1.5 1.5zm0-2c.25 0 .469.25.469.5 0 .281-.219.5-.469.5a.494.494 0 0 1-.5-.5c0-.25.219-.5.5-.5z" fill="#003D5B"/>
</svg>
