<svg width="17" height="16" viewBox="0 0 17 16" fill="none" xmlns="http://www.w3.org/2000/svg">
    <path d="M2.504 4.25a.74.74 0 0 1 .75-.75.76.76 0 0 1 .75.75.74.74 0 0 1-.75.75.722.722 0 0 1-.75-.75zM6.379 1c.375 0 .781.188 1.063.469l5.374 5.375a2.018 2.018 0 0 1 0 2.843L8.66 13.845a2.018 2.018 0 0 1-2.843 0L.442 8.469a1.543 1.543 0 0 1-.438-1.063V2.5a1.5 1.5 0 0 1 1.5-1.5H6.38zM1.13 7.75l5.406 5.406a1.02 1.02 0 0 0 1.407 0l4.187-4.187a1.02 1.02 0 0 0 0-1.406L6.723 2.155A.502.502 0 0 0 6.379 2H1.504c-.281 0-.5.25-.5.5v4.906c0 .125.031.25.125.344zm8.5-6.594c.188-.187.5-.187.719 0l4.406 4.219a3.984 3.984 0 0 1 0 5.781l-3.906 3.719a.49.49 0 0 1-.688 0c-.187-.219-.187-.531 0-.719l3.906-3.719a3.037 3.037 0 0 0 0-4.343L9.63 1.875c-.187-.188-.187-.5 0-.719z" fill="#003D5B"/>
</svg>
