<svg width="14" height="16" viewBox="0 0 14 16" fill="none" xmlns="http://www.w3.org/2000/svg">
    <path d="M7.004 5a.47.47 0 0 0 .344-.125.53.53 0 0 0 0-.719l-3-3a.53.53 0 0 0-.719 0l-3 3a.53.53 0 0 0 0 .719.53.53 0 0 0 .719 0l2.156-2.156V14.5c0 .281.219.5.5.5.25 0 .5-.219.5-.5V2.719L6.63 4.875c.094.094.219.125.375.125zm6.344 6.156a.502.502 0 0 0-.344-.156.518.518 0 0 0-.375.156l-2.125 2.156V1.5c0-.25-.25-.5-.5-.5-.281 0-.5.25-.5.5v11.813l-2.156-2.157a.53.53 0 0 0-.719 0 .53.53 0 0 0 0 .719l3 3a.53.53 0 0 0 .719 0l3-3a.53.53 0 0 0 0-.719z" fill="#003D5B"/>
</svg>
