<svg width="18" height="17" viewBox="0 0 18 17" fill="none" xmlns="http://www.w3.org/2000/svg">
    <path d="m8.973 13.625-4.281 2.313c-.25.124-.532.093-.782-.063-.218-.156-.343-.469-.312-.75l.844-4.844-3.47-3.437a.735.735 0 0 1-.187-.782c.094-.25.313-.468.594-.5l4.781-.718L8.317.437C8.442.188 8.692 0 8.973 0c.312 0 .562.188.687.438l2.156 4.406 4.782.718c.281.032.5.25.594.5a.735.735 0 0 1-.188.782l-3.469 3.437.813 4.844a.753.753 0 0 1-.282.75c-.25.156-.562.188-.812.063l-4.281-2.313zM7.067 5.281c-.157.313-.438.5-.75.563l-4.313.625L5.13 9.562c.25.22.344.563.281.876l-.718 4.374 3.812-2.062a1.06 1.06 0 0 1 .969 0l3.812 2.063-.719-4.376a.924.924 0 0 1 .282-.874l3.093-3.094-4.28-.625c-.345-.063-.626-.25-.75-.563L8.972 1.344 7.067 5.28z" fill="#003D5B"/>
</svg>
