<svg width="19" height="10" viewBox="0 0 19 10" fill="none" xmlns="http://www.w3.org/2000/svg">
    <path d="M12.004 5c0-.531.438-1 1-1 .531 0 1 .469 1 1 0 .563-.469 1-1 1-.563 0-1-.438-1-1zm-2 0c0-1.656 1.313-3 3-3a3 3 0 0 1 0 6 2.98 2.98 0 0 1-3-3zm3 2c1.094 0 2-.875 2-2 0-1.094-.906-2-2-2-1.125 0-2 .906-2 2 0 1.125.875 2 2 2zm0-7c2.75 0 5 2.25 5 5 0 2.781-2.25 5-5 5h-8c-2.781 0-5-2.219-5-5 0-2.75 2.219-5 5-5h8zm0 1h-8c-2.219 0-4 1.813-4 4 0 2.219 1.781 4 4 4h8c2.188 0 4-1.781 4-4 0-2.188-1.813-4-4-4z" fill="#003D5B"/>
</svg>
